# xmcd CD database file
#
# Track frame offsets:
#	150
#	13277
#	32479
#	43961
#	57338
#	77035
#	97277
#	110539
#	123686
#	142023
#	155430
#	176477
#
# Disc length: 2555 seconds
#
# Revision: 5
# Processed by: cddbd v1.4PL0 Copyright (c) Steve Scherf et al.
# Submitted via: CDex 1.50Beta7
#
DISCID=ac09f90c
DTITLE=Don Freeman - Don Freeman Favorites
DYEAR=2001
DGENRE=Country
TTITLE0=Team #2
TTITLE1=They Never Had You
TTITLE2=Mama
TTITLE3=Homebound Highway
TTITLE4=Ride
TTITLE5=Crazy About You
TTITLE6=You Walked Away
TTITLE7=Rock of Faith
TTITLE8=One Only Friend
TTITLE9=You Are
TTITLE10=Gone With the Wind
TTITLE11=New Direction
EXTD=YEAR: 2001
EXTT0=
EXTT1=
EXTT2=
EXTT3=
EXTT4=
EXTT5=
EXTT6=
EXTT7=
EXTT8=
EXTT9=
EXTT10=
EXTT11=
PLAYORDER=
